<?xml version="1.0" standalone="no"?><!DOCTYPE svg PUBLIC "-//W3C//DTD SVG 1.1//EN" "http://www.w3.org/Graphics/SVG/1.1/DTD/svg11.dtd"><svg t="1610588112603" class="icon" viewBox="0 0 1024 1024" version="1.1" xmlns="http://www.w3.org/2000/svg" p-id="2785" xmlns:xlink="http://www.w3.org/1999/xlink" width="200" height="200"><defs><style type="text/css"></style></defs><path d="M107.812571 509.513143a402.285714 402.285714 0 0 1 402.212572-402.285714v120.685714a40.228571 40.228571 0 0 0 40.228571 40.228571c22.235429 0 55.808-40.228571 55.808-40.228571L831.780571 0h-321.828571A509.513143 509.513143 0 0 0 0.585143 509.513143c0 133.851429 52.004571 255.268571 136.484571 346.185143l75.849143-75.849143a400.384 400.384 0 0 1-105.033143-270.336z m775.241143-346.258286L807.204571 239.177143a400.237714 400.237714 0 0 1 105.033143 270.409143 402.285714 402.285714 0 0 1-402.285714 402.212571v-120.685714a40.228571 40.228571 0 0 0-40.155429-40.228572c-22.235429 0-55.881143 40.228571-55.881142 40.228572l-225.718858 227.913143h321.828572a509.513143 509.513143 0 0 0 509.513143-509.44c0-133.851429-52.077714-255.268571-136.484572-346.258286z" fill="#333333" p-id="2786"></path></svg>