<?xml version="1.0" standalone="no"?><!DOCTYPE svg PUBLIC "-//W3C//DTD SVG 1.1//EN" "http://www.w3.org/Graphics/SVG/1.1/DTD/svg11.dtd"><svg t="1585077604174" class="icon" viewBox="0 0 1024 1024" version="1.1" xmlns="http://www.w3.org/2000/svg" p-id="1354" xmlns:xlink="http://www.w3.org/1999/xlink" width="200" height="200"><defs><style type="text/css"></style></defs><path d="M376.32 729.6c10.24 0 20.48 2.56 30.72 5.12 10.24 5.12 17.92 10.24 25.6 15.36 7.68 7.68 12.8 15.36 15.36 25.6 5.12 10.24 5.12 20.48 5.12 30.72 0 10.24-2.56 20.48-5.12 30.72-5.12 10.24-10.24 17.92-15.36 25.6-7.68 7.68-15.36 12.8-25.6 15.36-10.24 5.12-20.48 5.12-30.72 5.12-10.24 0-20.48-2.56-30.72-5.12-10.24-5.12-17.92-10.24-25.6-15.36-7.68-7.68-12.8-15.36-15.36-25.6-5.12-10.24-5.12-20.48-5.12-30.72 0-10.24 2.56-20.48 5.12-30.72 5.12-10.24 10.24-17.92 15.36-25.6 7.68-7.68 15.36-12.8 25.6-15.36 10.24-2.56 20.48-5.12 30.72-5.12z m345.6 2.56c10.24 0 20.48 2.56 30.72 5.12 10.24 5.12 17.92 10.24 25.6 15.36 7.68 7.68 12.8 15.36 15.36 25.6 5.12 10.24 5.12 20.48 5.12 30.72 0 10.24-2.56 20.48-5.12 30.72-5.12 10.24-10.24 17.92-15.36 25.6-7.68 7.68-15.36 12.8-25.6 15.36-10.24 5.12-20.48 5.12-30.72 5.12-10.24 0-20.48-2.56-30.72-5.12-10.24-5.12-17.92-10.24-25.6-15.36-7.68-7.68-12.8-15.36-15.36-25.6-5.12-10.24-5.12-20.48-5.12-30.72 0-10.24 2.56-20.48 5.12-30.72 5.12-10.24 10.24-17.92 15.36-25.6 7.68-7.68 15.36-12.8 25.6-15.36 10.24-2.56 20.48-5.12 30.72-5.12z m140.8-471.04c15.36 0 28.16 2.56 35.84 5.12 7.68 5.12 15.36 10.24 17.92 15.36 2.56 5.12 5.12 12.8 5.12 20.48 0 7.68 0 12.8-2.56 17.92-2.56 5.12-5.12 15.36-10.24 30.72s-10.24 33.28-17.92 51.2c-7.68 17.92-12.8 35.84-20.48 56.32-5.12 17.92-10.24 33.28-15.36 43.52-7.68 23.04-15.36 38.4-28.16 46.08-10.24 7.68-25.6 12.8-40.96 12.8h-435.2l12.8 74.24h417.28c25.6 0 40.96 10.24 40.96 33.28 0 10.24-2.56 20.48-7.68 28.16-5.12 7.68-15.36 12.8-30.72 12.8h-435.2c-10.24 0-20.48-2.56-28.16-7.68-7.68-5.12-12.8-10.24-17.92-20.48-5.12-7.68-10.24-17.92-12.8-25.6-2.56-10.24-5.12-17.92-7.68-25.6 0-2.56-2.56-10.24-5.12-23.04s-5.12-28.16-10.24-48.64c-2.56-17.92-7.68-40.96-12.8-64-5.12-23.04-7.68-46.08-12.8-71.68-10.24-56.32-23.04-117.76-35.84-186.88H145.92c-7.68 0-15.36-2.56-20.48-5.12-5.12-5.12-10.24-10.24-12.8-17.92-5.12-5.12-7.68-10.24-7.68-17.92-2.56-7.68-2.56-12.8-2.56-17.92 0-10.24 2.56-20.48 10.24-28.16 7.68-7.68 17.92-10.24 30.72-10.24h84.48c10.24 0 20.48 2.56 25.6 5.12 7.68 2.56 12.8 7.68 15.36 12.8 5.12 5.12 7.68 10.24 7.68 15.36 2.56 5.12 5.12 10.24 5.12 15.36 0 5.12 2.56 10.24 2.56 17.92 0 7.68 2.56 15.36 2.56 25.6 2.56 10.24 2.56 20.48 5.12 30.72h570.88z m0 0" p-id="1355" fill="#d2985f"></path></svg>