<?xml version="1.0" standalone="no"?><!DOCTYPE svg PUBLIC "-//W3C//DTD SVG 1.1//EN" "http://www.w3.org/Graphics/SVG/1.1/DTD/svg11.dtd"><svg t="1585077582665" class="icon" viewBox="0 0 1024 1024" version="1.1" xmlns="http://www.w3.org/2000/svg" p-id="1122" xmlns:xlink="http://www.w3.org/1999/xlink" width="200" height="200"><defs><style type="text/css"></style></defs><path d="M650.24 437.76h184.32l2.56 419.84-186.88-2.56V742.4c0-10.24-7.68-20.48-15.36-28.16-15.36-5.12-30.72-5.12-46.08 0-10.24 7.68-15.36 17.92-17.92 28.16v112.64H176.64V583.68h112.64c12.8 0 28.16-28.16 28.16-40.96s-15.36-40.96-28.16-40.96H176.64V197.12h87.04c12.8 0 23.04-28.16 23.04-40.96s-10.24-40.96-23.04-40.96H117.76c-12.8 2.56-20.48 12.8-23.04 25.6v773.12c-2.56 5.12 0 12.8 5.12 17.92 5.12 5.12 10.24 7.68 17.92 5.12h775.68c10.24-5.12 17.92-12.8 20.48-23.04V381.44c-5.12-10.24-12.8-17.92-23.04-23.04h-240.64V140.8c-2.56-12.8-15.36-23.04-28.16-23.04H435.2c-12.8 0-20.48 28.16-20.48 40.96s7.68 38.4 20.48 40.96h135.68v304.64h-64c-5.12 0-12.8 2.56-15.36 7.68-5.12 10.24-5.12 23.04-5.12 33.28s0 23.04 5.12 33.28c5.12 5.12 10.24 7.68 15.36 5.12l143.36 2.56c5.12 0 0 5.12 0 0v-148.48z m0 0" p-id="1123" fill="#d2985f"></path></svg>