<?xml version="1.0" standalone="no"?><!DOCTYPE svg PUBLIC "-//W3C//DTD SVG 1.1//EN" "http://www.w3.org/Graphics/SVG/1.1/DTD/svg11.dtd"><svg t="1582701578906" class="icon" viewBox="0 0 1024 1024" version="1.1" xmlns="http://www.w3.org/2000/svg" p-id="2961" xmlns:xlink="http://www.w3.org/1999/xlink" width="20" height="20"><defs><style type="text/css"></style></defs><path d="M273.92 581.12c-5.12-2.56-7.68-7.68-10.24-12.8-2.56-5.12 0-10.24 2.56-15.36l161.28-266.24c5.12-7.68 15.36-12.8 25.6-10.24h5.12l76.8 20.48c10.24 0 20.48 10.24 20.48 20.48v230.4c0 7.68-2.56 12.8-7.68 15.36l89.6 92.16c5.12 2.56 7.68 5.12 10.24 7.68l110.08 207.36c5.12 10.24 2.56 23.04-7.68 28.16l-25.6 15.36c-5.12 7.68-10.24 7.68-15.36 7.68-5.12-2.56-10.24-5.12-12.8-10.24l-104.96-197.12c-2.56 0-7.68-2.56-10.24-5.12l-138.24-140.8c-5.12-5.12-7.68-10.24-5.12-15.36V414.72L332.8 588.8c-5.12 10.24-20.48 12.8-30.72 7.68l-28.16-15.36z m266.24-332.8c-40.96 0-74.24-33.28-74.24-74.24 0-40.96 33.28-74.24 74.24-74.24 40.96 2.56 74.24 35.84 74.24 76.8 0 38.4-33.28 71.68-74.24 71.68z m43.52 148.48c2.56 0 2.56 2.56 5.12 2.56l135.68 138.24c5.12 5.12 7.68 10.24 7.68 15.36 0 5.12-2.56 10.24-7.68 15.36l-23.04 23.04c-10.24 7.68-23.04 7.68-33.28 0l-84.48-84.48v-110.08zM486.4 647.68c5.12 2.56 7.68 7.68 10.24 12.8 2.56 5.12 0 10.24-2.56 15.36L332.8 911.36c-5.12 10.24-20.48 12.8-30.72 7.68l-28.16-15.36c-5.12-2.56-7.68-7.68-10.24-12.8-2.56-5.12 0-10.24 2.56-15.36l161.28-235.52c5.12-10.24 20.48-12.8 30.72-7.68l28.16 15.36z m0 0" p-id="2962" fill="#D2985F"></path></svg>