<?xml version="1.0" standalone="no"?><!DOCTYPE svg PUBLIC "-//W3C//DTD SVG 1.1//EN" "http://www.w3.org/Graphics/SVG/1.1/DTD/svg11.dtd"><svg t="1582701603840" class="icon" viewBox="0 0 1024 1024" version="1.1" xmlns="http://www.w3.org/2000/svg" p-id="3127" xmlns:xlink="http://www.w3.org/1999/xlink" width="20" height="20"><defs><style type="text/css"></style></defs><path d="M867.84 253.44c7.68 2.56 10.24 10.24 10.24 17.92 0 7.68-5.12 15.36-10.24 17.92l-335.36 179.2c-12.8 7.68-30.72 7.68-43.52 0l-332.8-179.2c-7.68-2.56-10.24-10.24-10.24-17.92 0-7.68 5.12-15.36 10.24-17.92l335.36-179.2c12.8-7.68 30.72-7.68 43.52 0l332.8 179.2zM445.44 537.6c12.8 7.68 23.04 20.48 23.04 35.84l-2.56 355.84c0 7.68-5.12 15.36-10.24 17.92-7.68 2.56-15.36 2.56-20.48 0L128 785.92c-15.36-5.12-25.6-20.48-25.6-35.84v-358.4c0-7.68 5.12-15.36 10.24-17.92 7.68-2.56 15.36-5.12 20.48 0L445.44 537.6z m442.88-161.28c7.68-2.56 15.36-2.56 20.48 0 7.68 2.56 10.24 10.24 10.24 17.92v358.4c0 15.36-7.68 28.16-23.04 35.84l-307.2 161.28c-7.68 2.56-15.36 2.56-20.48 0-7.68-2.56-10.24-10.24-10.24-17.92l-2.56-355.84c0-15.36 7.68-28.16 23.04-35.84l309.76-163.84z m0 0" p-id="3128" fill="#D2985F"></path></svg>