<?xml version="1.0" standalone="no"?><!DOCTYPE svg PUBLIC "-//W3C//DTD SVG 1.1//EN" "http://www.w3.org/Graphics/SVG/1.1/DTD/svg11.dtd"><svg t="1608222656408" class="icon" viewBox="0 0 1170 1024" version="1.1" xmlns="http://www.w3.org/2000/svg" p-id="4638" xmlns:xlink="http://www.w3.org/1999/xlink" width="146.25" height="128"><defs><style type="text/css"></style></defs><path d="M320.024381 25.84381l-34.03581 8.484571C138.24 70.89981 45.689905 132.87619 45.689905 210.895238s92.550095 139.946667 240.298666 176.566857c87.137524 21.894095 190.659048 33.694476 299.154286 33.694476 108.495238 0 212.065524-11.800381 299.25181-33.743238 147.602286-36.571429 240.152381-98.499048 240.152381-176.518095s-92.501333-139.946667-240.249905-176.566857l-34.03581-8.387048v313.197715c-78.311619 17.65181-169.593905 27.160381-265.118476 27.160381-95.573333 0-186.855619-9.45981-265.167238-27.111619V25.84381z m585.142857 70.997333c104.350476 31.012571 164.571429 74.947048 164.571429 114.054095 0 39.15581-60.17219 83.041524-164.571429 114.102857v-228.205714z m-804.571428 114.054095c0-39.15581 60.123429-83.041524 164.522666-114.102857v228.205714c-104.350476-31.110095-164.571429-74.947048-164.571428-114.102857z m969.142857 0v585.142857c0 78.116571-216.502857 155.452952-484.59581 155.452953s-484.59581-77.336381-484.595809-155.452953v-585.142857H45.738667v585.142857c0 123.757714 242.151619 210.310095 539.40419 210.310095 297.252571 0 539.452952-86.552381 539.452953-210.310095v-585.142857h-54.857143zM483.961905 850.797714l127.75619-191.488 244.687238 300.373334 42.520381-34.718477-291.59619-357.912381L474.940952 765.561905 341.577143 636.342857l-181.004191 253.464381 44.568381 31.890286 144.042667-201.630476 134.826667 130.730666z m494.250666-310.759619a100.59581 100.59581 0 1 1-201.142857-0.048762 100.59581 100.59581 0 0 1 201.191619 0.048762z m-54.857142 0a45.738667 45.738667 0 1 0-91.428572 0 45.738667 45.738667 0 0 0 91.428572 0z" p-id="4639" fill="#ffffff"></path></svg>