<?xml version="1.0" standalone="no"?><!DOCTYPE svg PUBLIC "-//W3C//DTD SVG 1.1//EN" "http://www.w3.org/Graphics/SVG/1.1/DTD/svg11.dtd"><svg t="1608222755821" class="icon" viewBox="0 0 1069 1024" version="1.1" xmlns="http://www.w3.org/2000/svg" p-id="4831" xmlns:xlink="http://www.w3.org/1999/xlink" width="133.625" height="128"><defs><style type="text/css"></style></defs><path d="M459.294118 412.611765v210.823529c0 10.541176 15.058824 18.070588 24.094117 12.047059l164.141177-105.411765c9.035294-6.023529 9.035294-18.070588 0-24.094117l-165.647059-105.411765c-7.529412-6.023529-22.588235 0-22.588235 12.047059z" fill="#ffffff" p-id="4832"></path><path d="M475.858824 652.047059c-6.023529 0-10.541176-1.505882-16.564706-4.517647-9.035294-6.023529-15.058824-15.058824-15.058824-25.6v-210.82353c0-10.541176 6.023529-19.576471 15.058824-25.6 10.541176-6.023529 22.588235-6.023529 31.623529 0l165.647059 105.411765c7.529412 6.023529 13.552941 13.552941 13.552941 24.094118 0 10.541176-4.517647 19.576471-13.552941 25.6l-164.141177 105.411764c-6.023529 4.517647-10.541176 6.023529-16.564705 6.02353z m-1.505883-31.62353h1.505883l162.635294-103.905882-164.141177-103.905882h-1.505882v207.811764zM911.058824 496.941176h-105.411765v-105.411764h105.411765v105.411764z m-75.294118-30.117647h45.17647v-45.17647h-45.17647v45.17647zM911.058824 632.470588h-105.411765v-105.411764h105.411765v105.411764z m-75.294118-30.117647h45.17647v-45.17647h-45.17647v45.17647zM263.529412 496.941176h-105.411765v-105.411764h105.411765v105.411764z m-75.294118-30.117647h45.176471v-45.17647h-45.176471v45.17647zM263.529412 632.470588h-105.411765v-105.411764h105.411765v105.411764z m-75.294118-30.117647h45.176471v-45.17647h-45.176471v45.17647z" fill="#ffffff" p-id="4833"></path><path d="M971.294118 752.941176h-90.352942v-60.235294h-45.17647v60.235294h-602.352941v-60.235294h-45.176471v60.235294h-90.352941V271.058824h90.352941v60.235294h45.176471v-60.235294h602.352941v60.235294h45.17647v-60.235294h90.352942v481.882352z m-60.235294-30.117647h30.117647V301.176471h-30.117647v60.235294h-105.411765v-60.235294h-542.117647v60.235294h-105.411765v-60.235294h-30.117647v421.647058h30.117647v-60.235294h105.411765v60.235294h542.117647v-60.235294h105.411765v60.235294zM858.352941 265.035294C780.047059 164.141176 662.588235 105.411765 534.588235 105.411765S289.129412 164.141176 210.823529 265.035294l-24.094117-18.070588C271.058824 138.541176 397.552941 75.294118 534.588235 75.294118c137.035294 0 263.529412 63.247059 346.352941 171.670588L858.352941 265.035294zM534.588235 948.705882c-137.035294 0-263.529412-63.247059-346.352941-171.670588l24.094118-18.070588C289.129412 859.858824 406.588235 918.588235 534.588235 918.588235 662.588235 918.588235 780.047059 859.858824 858.352941 758.964706l24.094118 18.070588C798.117647 885.458824 671.623529 948.705882 534.588235 948.705882z" fill="#ffffff" p-id="4834"></path><path d="M655.058824 260.517647c-30.117647-96.376471-75.294118-155.105882-120.470589-155.105882s-90.352941 57.223529-120.470588 155.105882l-28.611765-9.035294C418.635294 140.047059 474.352941 75.294118 534.588235 75.294118s115.952941 64.752941 150.588236 176.188235l-30.117647 9.035294zM534.588235 948.705882c-60.235294 0-115.952941-64.752941-150.588235-176.188235l28.611765-9.035294c30.117647 96.376471 75.294118 155.105882 120.470588 155.105882s90.352941-57.223529 120.470588-155.105882l28.611765 9.035294C650.541176 883.952941 594.823529 948.705882 534.588235 948.705882z" fill="#ffffff" p-id="4835"></path></svg>