<?xml version="1.0" encoding="utf-8"?>
<!-- Generator: Adobe Illustrator 22.0.0, SVG Export Plug-In . SVG Version: 6.00 Build 0)  -->
<svg version="1.1" id="图层_1" xmlns="http://www.w3.org/2000/svg" xmlns:xlink="http://www.w3.org/1999/xlink" x="0px" y="0px"
	 viewBox="0 0 40 40" style="enable-background:new 0 0 40 40;" xml:space="preserve">
<g>
	<g>
		<path d="M33.1,10.7c0.3,0.1,0.4,0.4,0.4,0.7c0,0.3-0.2,0.6-0.4,0.7L20,19c-0.5,0.3-1.2,0.3-1.7,0l-13-7c-0.3-0.1-0.4-0.4-0.4-0.7
			c0-0.3,0.2-0.6,0.4-0.7l13.1-7c0.5-0.3,1.2-0.3,1.7,0L33.1,10.7z M16.7,21.7c0.5,0.3,0.9,0.8,0.9,1.4l-0.1,13.9
			c0,0.3-0.2,0.6-0.4,0.7c-0.3,0.1-0.6,0.1-0.8,0l-12-6.3c-0.6-0.3-0.9-0.8-0.9-1.4V16c0-0.3,0.2-0.6,0.4-0.7c0.3-0.1,0.6-0.2,0.8,0
			L16.7,21.7z M34,15.4c0.3-0.1,0.6-0.1,0.8,0c0.3,0.1,0.4,0.4,0.4,0.7v14c0,0.6-0.3,1.1-0.9,1.4l-12,6.3c-0.3,0.1-0.6,0.1-0.8,0
			c-0.3-0.1-0.4-0.4-0.4-0.7L21,23.2c0-0.6,0.3-1.1,0.9-1.4L34,15.4z M34,15.4"/>
	</g>
</g>
</svg>
