<?xml version="1.0" encoding="utf-8"?>
<!-- Generator: Adobe Illustrator 22.0.0, SVG Export Plug-In . SVG Version: 6.00 Build 0)  -->
<svg version="1.1" id="图层_1" xmlns="http://www.w3.org/2000/svg" xmlns:xlink="http://www.w3.org/1999/xlink" x="0px" y="0px"
	 viewBox="0 0 40 40" style="enable-background:new 0 0 40 40;" xml:space="preserve">
<g>
	<path d="M29.1,13.6H11.5c-0.8,0-1.5,0.4-1.5,0.8c0,0.4,0.7,0.8,1.5,0.8h17.6c0.8,0,1.5-0.4,1.5-0.8C30.6,14,29.9,13.6,29.1,13.6
		L29.1,13.6z M29.1,13.6"/>
	<path d="M31.2,13.6h-2.4v-0.8C28.8,7.9,24.9,4,20,4c-4.9,0-8.8,3.9-8.8,8.8v0.8H8.8c-2.9,0-5.2,2.6-4.8,5.5l2,14.2
		C6.3,34.8,7.7,36,9.2,36h21.5c1.6,0,2.9-1.2,3.2-2.7l2-14.2C36.4,16.2,34.1,13.6,31.2,13.6L31.2,13.6z M30.8,34.4H9.2
		c-0.8,0-1.5-0.6-1.6-1.4l-0.3-1.8h25.2L32.3,33C32.2,33.8,31.6,34.4,30.8,34.4L30.8,34.4z M34.4,18.9l-1.6,11v-0.2H7.2v0.2l-1.6-11
		c-0.1-0.9,0.1-1.8,0.8-2.5c0.6-0.7,1.5-1.1,2.4-1.1h2.4V17c-0.5,0.3-0.8,0.8-0.8,1.4c0,0.9,0.7,1.6,1.6,1.6c0.9,0,1.6-0.7,1.6-1.6
		c0-0.6-0.3-1.1-0.8-1.4v-4.2c0-4,3.2-7.2,7.2-7.2s7.2,3.2,7.2,7.2V17c-0.5,0.3-0.8,0.8-0.8,1.4c0,0.9,0.7,1.6,1.6,1.6
		s1.6-0.7,1.6-1.6c0-0.6-0.3-1.1-0.8-1.4v-1.8h2.4c0.9,0,1.8,0.4,2.4,1.1C34.2,17,34.5,17.9,34.4,18.9L34.4,18.9z M34.4,18.9"/>
</g>
</svg>
