<?xml version="1.0" encoding="utf-8"?>
<!-- Generator: Adobe Illustrator 22.0.0, SVG Export Plug-In . SVG Version: 6.00 Build 0)  -->
<svg version="1.1" id="图层_1" xmlns="http://www.w3.org/2000/svg" xmlns:xlink="http://www.w3.org/1999/xlink" x="0px" y="0px"
	 viewBox="0 0 40 40" style="enable-background:new 0 0 40 40;" xml:space="preserve">
<g>
	<g>
		<path d="M29.3,22.7l-1.1,0.6c-0.4,0.2-0.9,0.1-1.2-0.3l-4.2-6.8v5.3c0,0,0,0.1,0,0.1c0,0.2-0.1,0.5-0.2,0.6l-5.4,5.5
			c-0.1,0.1-0.2,0.2-0.4,0.2l-4.1,7.7c-0.1,0.2-0.3,0.3-0.5,0.4c-0.2,0.1-0.4,0-0.6-0.1l-1-0.6c-0.4-0.2-0.5-0.7-0.3-1.1l4.3-8.1
			c0.1-0.2,0.2-0.3,0.4-0.3c0,0,0,0,0,0l3.5-3.6c-0.2-0.1-0.3-0.4-0.3-0.6v-2.8l0,0v-2.9l0,0v-3.3c0-0.4,0.3-0.8,0.8-0.8l3-0.8
			c0.1,0,0.1,0,0.2,0c0.4-0.1,0.8,0,1,0.4l6.3,10.4c0.1,0.2,0.1,0.4,0.1,0.6C29.6,22.4,29.5,22.6,29.3,22.7L29.3,22.7z M18.9,9.7
			c-1.6,0-2.9-1.3-2.9-2.9C16,5.3,17.3,4,18.9,4c1.6,0,2.9,1.3,2.9,2.9C21.7,8.4,20.4,9.7,18.9,9.7L18.9,9.7z M17.2,15.5v4.3
			l-3.3,3.3c-0.4,0.3-0.9,0.3-1.3,0l-0.9-0.9c-0.2-0.2-0.3-0.4-0.3-0.6c0-0.2,0.1-0.4,0.3-0.6l5.3-5.4C17,15.6,17.1,15.6,17.2,15.5
			L17.2,15.5z M21,25.3l1.1-0.6c0.4-0.2,0.9-0.1,1.2,0.3l6.3,9.2c0.1,0.2,0.1,0.4,0.1,0.6c-0.1,0.2-0.2,0.4-0.4,0.5l-1.1,0.6
			c-0.4,0.2-0.9,0.1-1.2-0.3l-6.3-9.2c-0.1-0.2-0.1-0.4-0.1-0.6C20.7,25.5,20.8,25.4,21,25.3L21,25.3z M21,25.3"/>
	</g>
</g>
</svg>
