{
    "accessors" : [
        {
            "bufferView" : 0,
            "componentType" : 5123,
            "count" : 8112,
            "max" : [
                1480
            ],
            "min" : [
                0
            ],
            "type" : "SCALAR"
        },
        {
            "bufferView" : 1,
            "componentType" : 5126,
            "count" : 1481,
            "max" : [
                0.9925966858863831,
                0.9998869299888611,
                0.9998873472213745
            ],
            "min" : [
                -0.9925968050956726,
                -0.062382642179727554,
                -0.9998866319656372
            ],
            "type" : "VEC3"
        },
        {
            "bufferView" : 2,
            "componentType" : 5126,
            "count" : 1481,
            "max" : [
                0.999786376953125,
                1.0,
                0.999786376953125
            ],
            "min" : [
                -0.999786376953125,
                -1.0,
                -0.999786376953125
            ],
            "type" : "VEC3"
        },
        {
            "bufferView" : 3,
            "componentType" : 5126,
            "count" : 1481,
            "max" : [
                0.9999969601631165,
                0.06048537790775299,
                1.0,
                -1.0
            ],
            "min" : [
                -1.0,
                -0.06048497185111046,
                -1.0,
                -1.0
            ],
            "type" : "VEC4"
        },
        {
            "bufferView" : 4,
            "componentType" : 5126,
            "count" : 1481,
            "max" : [
                1.0,
                1.0
            ],
            "min" : [
                0.0,
                0.0
            ],
            "type" : "VEC2"
        }
    ],
    "asset" : {
        "generator" : "Khronos Blender glTF 2.0 exporter",
        "version" : "2.0"
    },
    "bufferViews" : [
        {
            "buffer" : 0,
            "byteLength" : 16224,
            "byteOffset" : 0,
            "target" : 34963
        },
        {
            "buffer" : 0,
            "byteLength" : 17772,
            "byteOffset" : 16224,
            "target" : 34962
        },
        {
            "buffer" : 0,
            "byteLength" : 17772,
            "byteOffset" : 33996,
            "target" : 34962
        },
        {
            "buffer" : 0,
            "byteLength" : 23696,
            "byteOffset" : 51768,
            "target" : 34962
        },
        {
            "buffer" : 0,
            "byteLength" : 11848,
            "byteOffset" : 75464,
            "target" : 34962
        }
    ],
    "buffers" : [
        {
            "byteLength" : 87312,
            "uri" : "data:application/octet-stream;base64,"
        }
    ],
    "meshes" : [
        {
            "name" : "Sphere",
            "primitives" : [
                {
                    "attributes" : {
                        "NORMAL" : 2,
                        "POSITION" : 1,
                        "TANGENT" : 3,
                        "TEXCOORD_0" : 4
                    },
                    "indices" : 0
                }
            ]
        }
    ],
    "nodes" : [
        {
            "name" : "Camera",
            "rotation" : [
                0.483536034822464,
                0.33687159419059753,
                -0.20870360732078552,
                0.7804827094078064
            ],
            "translation" : [
                7.481131553649902,
                5.34366512298584,
                6.5076398849487305
            ]
        },
        {
            "name" : "Lamp",
            "rotation" : [
                0.16907575726509094,
                0.7558802962303162,
                -0.27217137813568115,
                0.570947527885437
            ],
            "scale" : [
                1.0,
                1.0,
                0.9999999403953552
            ],
            "translation" : [
                4.076245307922363,
                5.903861999511719,
                -1.0054539442062378
            ]
        },
        {
            "mesh" : 0,
            "name" : "Sphere"
        }
    ],
    "scene" : 0,
    "scenes" : [
        {
            "name" : "Scene",
            "nodes" : [
                2,
                1,
                0
            ]
        }
    ]
}
